<svg width="310" height="188" viewBox="0 0 310 188" fill="none" xmlns="http://www.w3.org/2000/svg">
<g clip-path="url(#clip0_1_2)">
<path d="M0.410004 187.877L4.053 179.117C4.356 178.984 33.743 171.755 70.193 169.924C107.106 168.076 158.643 172.892 192.684 176.084C206.1 177.341 217.431 177.76 223.168 177.967C282.915 180.117 305.609 166.955 305.838 166.812L309.124 174.76C308.181 175.361 286.232 189.37 225.589 187.159C219.787 186.949 205.32 186.41 191.867 185.149C157.891 181.963 105.535 176.696 68.794 178.541C32.766 180.351 0.711004 187.748 0.410004 187.877" fill="#A1C9ED"/>
<path d="M84.812 66.039C84.812 66.039 94.666 1.389 153.287 0.999998C214.308 0.597998 224.723 65.764 224.723 65.764L196.371 66.003L173.579 12.113L155.085 61.484L136.23 21.51L117.045 65.974L84.813 66.04" fill="#F8A139"/>
<path d="M301.516 156.31L281.672 107.241C281.55 106.94 281.341 106.682 281.071 106.5C280.802 106.319 280.484 106.221 280.159 106.221L241.923 106.249C241.263 106.25 240.668 105.853 240.415 105.242L238.629 100.93C238.526 100.682 238.486 100.413 238.512 100.146C238.538 99.8791 238.63 99.6228 238.779 99.3997C238.928 99.1767 239.13 98.9938 239.366 98.8674C239.603 98.741 239.867 98.6749 240.135 98.675L275.351 98.652C275.617 98.6516 275.879 98.5861 276.114 98.4611C276.349 98.3362 276.55 98.1557 276.7 97.9353C276.849 97.7149 276.942 97.4613 276.971 97.1967C277 96.932 276.963 96.6644 276.865 96.417L268.46 75.335C268.339 75.0316 268.131 74.7715 267.86 74.5882C267.59 74.4049 267.271 74.307 266.945 74.307H202.255C201.988 74.3072 201.725 74.3727 201.49 74.4979C201.254 74.6231 201.053 74.8041 200.903 75.0251C200.754 75.2462 200.661 75.5004 200.632 75.7657C200.604 76.0311 200.641 76.2993 200.74 76.547L222.339 130.344C222.46 130.646 222.669 130.905 222.939 131.088C223.208 131.27 223.526 131.368 223.852 131.368H259.624C260.296 131.368 260.897 131.779 261.143 132.404L263.22 137.705C263.317 137.952 263.352 138.22 263.322 138.483C263.292 138.747 263.198 139 263.049 139.219C262.899 139.439 262.698 139.618 262.463 139.742C262.228 139.866 261.967 139.931 261.701 139.931H216.651C216.319 139.931 215.995 139.829 215.722 139.64C215.45 139.451 215.241 139.184 215.124 138.873C215.124 138.873 175.004 33.775 174.321 33.845C173.716 33.908 156.459 85.607 155.617 85.083C155.339 84.909 137.16 42.987 136.525 42.993C135.912 42.999 96.819 138.853 96.819 138.853C96.6973 139.155 96.4882 139.413 96.2186 139.595C95.949 139.776 95.6312 139.873 95.306 139.873H51.36C51.106 139.873 50.8555 139.814 50.6285 139.7C50.4014 139.586 50.2041 139.421 50.0523 139.217C49.9005 139.014 49.7983 138.778 49.754 138.527C49.7097 138.277 49.7244 138.02 49.797 137.777L51.359 132.531C51.565 131.841 52.199 131.368 52.919 131.366L90.26 131.31C90.5803 131.31 90.8934 131.215 91.1602 131.037C91.427 130.86 91.6356 130.608 91.76 130.313L100.885 108.657C100.989 108.409 101.03 108.139 101.005 107.871C100.98 107.604 100.889 107.346 100.74 107.122C100.591 106.898 100.389 106.714 100.153 106.587C99.9156 106.46 99.6509 106.393 99.382 106.393H63.016C62.7575 106.393 62.5026 106.332 62.2725 106.214C62.0423 106.096 61.8435 105.926 61.6924 105.716C61.5413 105.506 61.4422 105.263 61.4033 105.008C61.3645 104.752 61.387 104.491 61.469 104.246L62.916 99.906C63.024 99.5811 63.2315 99.2984 63.5092 99.0981C63.7869 98.8978 64.1206 98.79 64.463 98.79H102.73C103.054 98.7901 103.371 98.6936 103.64 98.5128C103.909 98.332 104.118 98.0751 104.24 97.775L112.867 76.604C112.968 76.3563 113.007 76.0877 112.979 75.8216C112.952 75.5555 112.86 75.3003 112.711 75.0783C112.561 74.8563 112.36 74.6744 112.124 74.5486C111.888 74.4228 111.624 74.357 111.357 74.357H45.937C45.267 74.357 44.667 74.767 44.42 75.391L8.013 167.723C7.52 168.973 8.648 170.253 9.945 169.898C16.64 168.068 33.596 163.928 56.723 161.832C80.446 159.682 103.705 160.527 112.913 161.01L117.484 156.563L111.786 156.379L117.781 150.547L112.778 150.385L119.278 144.061L116.515 144.079L123.184 137.079L119.121 137.032L125.541 130.293L121.943 130.252L128.856 122.995L124.706 122.961L134.046 110.296L142.359 123.108L138.621 123.078L138.932 123.554L144.797 130.514L141.521 130.475L147.319 137.355L144.077 137.317L150.724 143.883L146.948 143.904L149.684 146.82L152.874 143.32L150.264 143.348L154.429 138.778L152.151 138.809L158.723 129.477L164.953 138.635L162.867 138.663L165.024 141.11L170.92 135.045L167.19 135.083L174.187 127.885L169.887 127.942L179.273 115.439L188.176 127.706L184.209 127.756L190.873 134.846L187.479 134.88L193.64 141.437L190.283 141.472L197.317 147.705L193.405 147.808L201.184 155.245L194.531 155.183L201.485 161.832L195.139 161.772L202.763 168.74C214.409 169.157 241.021 169.892 255.373 168.515C284.368 165.731 297.016 160.316 300.777 158.36C301.134 158.173 301.409 157.858 301.545 157.479C301.682 157.099 301.672 156.682 301.516 156.31Z" fill="#4E6D58"/>
</g>
<defs>
<clipPath id="clip0_1_2">
<rect width="310" height="188" fill="white"/>
</clipPath>
</defs>
</svg>
